<mxfile host="Electron" agent="Mozilla/5.0 (Windows NT 10.0; Win64; x64) AppleWebKit/537.36 (KHTML, like Gecko) draw.io/26.0.4 Chrome/128.0.6613.186 Electron/32.2.5 Safari/537.36" version="26.0.4">
  <diagram name="第 1 页" id="X8ax4rhysVmjnM9lnGcb">
    <mxGraphModel dx="1098" dy="820" grid="1" gridSize="10" guides="1" tooltips="1" connect="1" arrows="1" fold="1" page="1" pageScale="1" pageWidth="827" pageHeight="1169" math="0" shadow="0">
      <root>
        <mxCell id="0" />
        <mxCell id="1" parent="0" />
        <mxCell id="KUQzxE4TVZWpTY5a6tm5-29" value="" style="rounded=0;whiteSpace=wrap;html=1;" vertex="1" parent="1">
          <mxGeometry x="50" y="230" width="540" height="550" as="geometry" />
        </mxCell>
        <mxCell id="KUQzxE4TVZWpTY5a6tm5-1" value="x" style="rounded=0;whiteSpace=wrap;html=1;" vertex="1" parent="1">
          <mxGeometry x="90" y="290" width="120" height="60" as="geometry" />
        </mxCell>
        <mxCell id="KUQzxE4TVZWpTY5a6tm5-9" style="edgeStyle=orthogonalEdgeStyle;rounded=0;orthogonalLoop=1;jettySize=auto;html=1;" edge="1" parent="1" source="KUQzxE4TVZWpTY5a6tm5-2" target="KUQzxE4TVZWpTY5a6tm5-3">
          <mxGeometry relative="1" as="geometry" />
        </mxCell>
        <mxCell id="KUQzxE4TVZWpTY5a6tm5-2" value="y" style="rounded=0;whiteSpace=wrap;html=1;" vertex="1" parent="1">
          <mxGeometry x="280" y="290" width="120" height="60" as="geometry" />
        </mxCell>
        <mxCell id="KUQzxE4TVZWpTY5a6tm5-3" value="x&#39; = x + F(y)" style="rounded=0;whiteSpace=wrap;html=1;" vertex="1" parent="1">
          <mxGeometry x="280" y="410" width="120" height="60" as="geometry" />
        </mxCell>
        <mxCell id="KUQzxE4TVZWpTY5a6tm5-4" value="y&#39; = y" style="rounded=0;whiteSpace=wrap;html=1;" vertex="1" parent="1">
          <mxGeometry x="90" y="410" width="120" height="60" as="geometry" />
        </mxCell>
        <mxCell id="KUQzxE4TVZWpTY5a6tm5-7" value="" style="endArrow=classic;html=1;rounded=0;entryX=1;entryY=0;entryDx=0;entryDy=0;exitX=0;exitY=1;exitDx=0;exitDy=0;" edge="1" parent="1" source="KUQzxE4TVZWpTY5a6tm5-2" target="KUQzxE4TVZWpTY5a6tm5-4">
          <mxGeometry width="50" height="50" relative="1" as="geometry">
            <mxPoint x="390" y="450" as="sourcePoint" />
            <mxPoint x="440" y="400" as="targetPoint" />
          </mxGeometry>
        </mxCell>
        <mxCell id="KUQzxE4TVZWpTY5a6tm5-8" value="" style="endArrow=classic;html=1;rounded=0;entryX=0;entryY=0;entryDx=0;entryDy=0;exitX=1;exitY=1;exitDx=0;exitDy=0;" edge="1" parent="1" source="KUQzxE4TVZWpTY5a6tm5-1" target="KUQzxE4TVZWpTY5a6tm5-3">
          <mxGeometry width="50" height="50" relative="1" as="geometry">
            <mxPoint x="290" y="360" as="sourcePoint" />
            <mxPoint x="220" y="420" as="targetPoint" />
          </mxGeometry>
        </mxCell>
        <mxCell id="KUQzxE4TVZWpTY5a6tm5-17" value="x = x&#39; + F(y&#39;)" style="rounded=0;whiteSpace=wrap;html=1;" vertex="1" parent="1">
          <mxGeometry x="90" y="530" width="120" height="60" as="geometry" />
        </mxCell>
        <mxCell id="KUQzxE4TVZWpTY5a6tm5-19" value="y = y&#39;" style="rounded=0;whiteSpace=wrap;html=1;" vertex="1" parent="1">
          <mxGeometry x="280" y="530" width="120" height="60" as="geometry" />
        </mxCell>
        <mxCell id="KUQzxE4TVZWpTY5a6tm5-20" value="x&#39;&amp;nbsp;" style="rounded=0;whiteSpace=wrap;html=1;" vertex="1" parent="1">
          <mxGeometry x="280" y="650" width="120" height="60" as="geometry" />
        </mxCell>
        <mxCell id="KUQzxE4TVZWpTY5a6tm5-26" style="edgeStyle=orthogonalEdgeStyle;rounded=0;orthogonalLoop=1;jettySize=auto;html=1;entryX=0.5;entryY=1;entryDx=0;entryDy=0;" edge="1" parent="1" source="KUQzxE4TVZWpTY5a6tm5-21" target="KUQzxE4TVZWpTY5a6tm5-17">
          <mxGeometry relative="1" as="geometry" />
        </mxCell>
        <mxCell id="KUQzxE4TVZWpTY5a6tm5-21" value="y&#39;&amp;nbsp;" style="rounded=0;whiteSpace=wrap;html=1;" vertex="1" parent="1">
          <mxGeometry x="90" y="650" width="120" height="60" as="geometry" />
        </mxCell>
        <mxCell id="KUQzxE4TVZWpTY5a6tm5-24" value="" style="endArrow=classic;html=1;rounded=0;entryX=0;entryY=1;entryDx=0;entryDy=0;" edge="1" parent="1" target="KUQzxE4TVZWpTY5a6tm5-19">
          <mxGeometry width="50" height="50" relative="1" as="geometry">
            <mxPoint x="210" y="650" as="sourcePoint" />
            <mxPoint x="260" y="600" as="targetPoint" />
          </mxGeometry>
        </mxCell>
        <mxCell id="KUQzxE4TVZWpTY5a6tm5-25" value="" style="endArrow=classic;html=1;rounded=0;entryX=1;entryY=1;entryDx=0;entryDy=0;" edge="1" parent="1" target="KUQzxE4TVZWpTY5a6tm5-17">
          <mxGeometry width="50" height="50" relative="1" as="geometry">
            <mxPoint x="280" y="650" as="sourcePoint" />
            <mxPoint x="330" y="600" as="targetPoint" />
          </mxGeometry>
        </mxCell>
        <mxCell id="KUQzxE4TVZWpTY5a6tm5-27" value="&lt;h1 style=&quot;margin-top: 0px;&quot;&gt;加密&lt;/h1&gt;" style="text;html=1;whiteSpace=wrap;overflow=hidden;rounded=0;" vertex="1" parent="1">
          <mxGeometry x="414" y="290" width="180" height="120" as="geometry" />
        </mxCell>
        <mxCell id="KUQzxE4TVZWpTY5a6tm5-28" value="&lt;h1 style=&quot;margin-top: 0px;&quot;&gt;解密：&lt;/h1&gt;&lt;div&gt;&lt;br&gt;&lt;/div&gt;&lt;div&gt;key：&lt;/div&gt;&lt;div&gt;1. x + x = 0&lt;/div&gt;&lt;div&gt;2. x = (x + F(y)) + F(y)&amp;nbsp; = x&lt;/div&gt;" style="text;html=1;whiteSpace=wrap;overflow=hidden;rounded=0;" vertex="1" parent="1">
          <mxGeometry x="420" y="530" width="180" height="120" as="geometry" />
        </mxCell>
      </root>
    </mxGraphModel>
  </diagram>
</mxfile>
